<?xml version="1.0" encoding="UTF-8" standalone="no"?>
<!DOCTYPE svg PUBLIC "-//W3C//DTD SVG 1.1//EN" "http://www.w3.org/Graphics/SVG/1.1/DTD/svg11.dtd">
<svg width="100%" height="100%" viewBox="0 0 24 24" version="1.1" xmlns="http://www.w3.org/2000/svg" xmlns:xlink="http://www.w3.org/1999/xlink" xml:space="preserve" xmlns:serif="http://www.serif.com/" style="fill-rule:evenodd;clip-rule:evenodd;stroke-linejoin:round;stroke-miterlimit:2;">
    <g>
        <path d="M22.5,21C22.5,21.825 21.828,22.5 21,22.5L3,22.5C2.172,22.5 1.5,21.825 1.5,21L1.5,3C1.5,2.172 2.172,1.5 3,1.5L21,1.5C21.828,1.5 22.5,2.172 22.5,3L22.5,21ZM21,0L3,0C1.343,0 0,1.343 0,3L0,21C0,22.658 1.343,24 3,24L21,24C22.657,24 24,22.658 24,21L24,3C24,1.343 22.657,0 21,0ZM17.651,11.341L13.409,7.099C13.116,6.806 12.641,6.806 12.349,7.099C12.056,7.391 12.056,7.866 12.349,8.159L15.44,11.25L7.5,11.25C7.085,11.25 6.75,11.585 6.75,12C6.75,12.414 7.085,12.75 7.5,12.75L15.44,12.75L12.349,15.84C12.056,16.133 12.056,16.605 12.349,16.905C12.641,17.198 13.116,17.198 13.409,16.905L17.651,12.659C17.831,12.479 17.888,12.233 17.846,12C17.888,11.767 17.831,11.521 17.651,11.341Z" style="fill:white;"/>
    </g>
</svg>
