<?xml version="1.0" encoding="UTF-8" standalone="no"?>
<!DOCTYPE svg PUBLIC "-//W3C//DTD SVG 1.1//EN" "http://www.w3.org/Graphics/SVG/1.1/DTD/svg11.dtd">
<svg width="100%" height="100%" viewBox="0 0 24 24" version="1.1" xmlns="http://www.w3.org/2000/svg" xmlns:xlink="http://www.w3.org/1999/xlink" xml:space="preserve" xmlns:serif="http://www.serif.com/" style="fill-rule:evenodd;clip-rule:evenodd;stroke-linejoin:round;stroke-miterlimit:2;">
    <g>
        <clipPath id="_clip1">
            <rect x="-0" y="0" width="24" height="24"/>
        </clipPath>
        <g clip-path="url(#_clip1)">
            <path d="M1.5,3C1.5,2.175 2.172,1.5 3,1.5L21,1.5C21.828,1.5 22.5,2.175 22.5,3L22.5,21C22.5,21.828 21.828,22.5 21,22.5L3,22.5C2.172,22.5 1.5,21.828 1.5,21L1.5,3ZM3,24L21,24C22.657,24 24,22.657 24,21L24,3C24,1.343 22.657,-0 21,-0L3,-0C1.343,-0 0,1.343 0,3L0,21C0,22.657 1.343,24 3,24ZM6.349,12.659L10.591,16.901C10.884,17.195 11.359,17.195 11.651,16.901C11.945,16.61 11.945,16.134 11.651,15.841L8.561,12.75L16.5,12.75C16.915,12.75 17.25,12.415 17.25,12C17.25,11.586 16.915,11.25 16.5,11.25L8.561,11.25L11.651,8.16C11.945,7.868 11.945,7.395 11.651,7.095C11.359,6.803 10.884,6.803 10.591,7.095L6.349,11.341C6.169,11.521 6.112,11.767 6.154,12C6.112,12.233 6.169,12.479 6.349,12.659Z" style="fill:white;"/>
        </g>
    </g>
</svg>
